<?xml version="1.0" encoding="UTF-8"?>
<svg width="20px" height="20px" viewBox="0 0 20 20" version="1.1" xmlns="http://www.w3.org/2000/svg" xmlns:xlink="http://www.w3.org/1999/xlink">
    <!-- Generator: Sketch 53.1 (72631) - https://sketchapp.com -->
    <title>首页@2x</title>
    <desc>Created with Sketch.</desc>
    <g id="Page-1" stroke="none" stroke-width="1" fill="none" fill-rule="evenodd">
        <g id="首页" transform="translate(0.000000, -0.500000)" fill="#606B73">
            <path d="M4.98528137,11.4852814 L4.98528137,18 L6.98528137,18 L6.98528137,13 C6.98528137,12.4477153 7.43299662,12 7.98528137,12 L11.9852814,12 C12.5375661,12 12.9852814,12.4477153 12.9852814,13 L12.9852814,18 L14.9852814,18 L14.9852814,11.4852814 L14.9852814,9.48528137 L16.0563492,9.48528137 L9.98528137,3.41421356 L3.91421356,9.48528137 L4.98528137,9.48528137 L4.98528137,11.4852814 Z M2.98528137,11.4852814 L1.48528137,11.4852814 C1.47312801,11.4852814 1.46107592,11.4848478 1.44913973,11.4839952 C1.21042545,11.4719131 0.975215851,11.3747108 0.792893219,11.1923882 C0.402368927,10.8018639 0.402368927,10.1686989 0.792893219,9.77817459 L9.27817459,1.29289322 C9.66869888,0.902368927 10.3018639,0.902368927 10.6923882,1.29289322 L19.1776695,9.77817459 C19.5681938,10.1686989 19.5681938,10.8018639 19.1776695,11.1923882 C18.9953469,11.3747108 18.7601373,11.4719131 18.521423,11.4839952 C18.5094868,11.4848478 18.4974347,11.4852814 18.4852814,11.4852814 L16.9852814,11.4852814 L16.9852814,20 L2.98528137,20 L2.98528137,11.4852814 Z M8.98528137,18 L10.9852814,18 L10.9852814,14 L8.98528137,14 L8.98528137,18 Z" id="合并形状"></path>
        </g>
    </g>
</svg>